<?xml version="1.0" encoding="UTF-8"?>
<svg xmlns="http://www.w3.org/2000/svg" viewBox="0 0 471.93 460.28" version="1.1">
<defs>
<clipPath id="clip1">
  <path d="M 0 0 L 471.929688 0 L 471.929688 460.28125 L 0 460.28125 Z M 0 0 "/>
</clipPath>
</defs>
<g id="surface1">
<g clip-path="url(#clip1)" clip-rule="nonzero">
<path style=" stroke:none;fill-rule:evenodd;fill:rgb(9.399414%,8.999634%,8.999634%);fill-opacity:1;" d="M 235.964844 0.00390625 C 105.660156 0.00390625 0 105.644531 0 235.96875 C 0 340.222656 67.609375 428.671875 161.367188 459.875 C 173.15625 462.058594 177.488281 454.753906 177.488281 448.523438 C 177.488281 442.898438 177.269531 424.304688 177.167969 404.589844 C 111.523438 418.863281 97.671875 376.75 97.671875 376.75 C 86.9375 349.476563 71.472656 342.222656 71.472656 342.222656 C 50.0625 327.578125 73.085938 327.878906 73.085938 327.878906 C 96.777344 329.542969 109.257813 352.195313 109.257813 352.195313 C 130.300781 388.269531 164.457031 377.839844 177.925781 371.8125 C 180.042969 356.5625 186.15625 346.148438 192.90625 340.257813 C 140.492188 334.292969 85.394531 314.058594 85.394531 223.644531 C 85.394531 197.882813 94.613281 176.832031 109.710938 160.308594 C 107.261719 154.363281 99.183594 130.363281 111.996094 97.859375 C 111.996094 97.859375 131.8125 91.519531 176.902344 122.050781 C 195.726563 116.820313 215.910156 114.199219 235.964844 114.109375 C 256.015625 114.199219 276.21875 116.820313 295.074219 122.050781 C 340.113281 91.519531 359.898438 97.859375 359.898438 97.859375 C 372.742188 130.363281 364.664063 154.363281 362.21875 160.308594 C 377.347656 176.832031 386.5 197.882813 386.5 223.644531 C 386.5 314.273438 331.300781 334.226563 278.753906 340.070313 C 287.21875 347.394531 294.757813 361.75 294.757813 383.765625 C 294.757813 415.339844 294.488281 440.75 294.488281 448.523438 C 294.488281 454.804688 298.734375 462.160156 310.695313 459.84375 C 404.402344 428.605469 471.925781 340.1875 471.925781 235.96875 C 471.925781 105.644531 366.28125 0.00390625 235.964844 0.00390625 "/>
</g>
<path style=" stroke:none;fill-rule:nonzero;fill:rgb(9.399414%,8.999634%,8.999634%);fill-opacity:1;" d="M 89.371094 338.796875 C 88.851563 339.972656 87.007813 340.320313 85.328125 339.515625 C 83.613281 338.746094 82.65625 337.148438 83.210938 335.972656 C 83.71875 334.765625 85.5625 334.429688 87.273438 335.234375 C 88.988281 336.007813 89.964844 337.621094 89.371094 338.796875 "/>
<path style=" stroke:none;fill-rule:nonzero;fill:rgb(9.399414%,8.999634%,8.999634%);fill-opacity:1;" d="M 98.929688 349.457031 C 97.804688 350.5 95.601563 350.015625 94.113281 348.367188 C 92.566406 346.722656 92.28125 344.519531 93.421875 343.464844 C 94.582031 342.421875 96.714844 342.910156 98.257813 344.554688 C 99.804688 346.21875 100.105469 348.398438 98.929688 349.457031 "/>
<path style=" stroke:none;fill-rule:nonzero;fill:rgb(9.399414%,8.999634%,8.999634%);fill-opacity:1;" d="M 108.234375 363.046875 C 106.789063 364.054688 104.421875 363.109375 102.960938 361.011719 C 101.515625 358.914063 101.515625 356.394531 102.996094 355.386719 C 104.457031 354.378906 106.789063 355.289063 108.269531 357.367188 C 109.710938 359.5 109.710938 362.019531 108.234375 363.046875 "/>
<path style=" stroke:none;fill-rule:nonzero;fill:rgb(9.399414%,8.999634%,8.999634%);fill-opacity:1;" d="M 120.980469 376.175781 C 119.6875 377.601563 116.929688 377.21875 114.914063 375.273438 C 112.851563 373.371094 112.277344 370.667969 113.574219 369.242188 C 114.886719 367.816406 117.65625 368.214844 119.6875 370.148438 C 121.734375 372.046875 122.355469 374.765625 120.980469 376.175781 "/>
<path style=" stroke:none;fill-rule:nonzero;fill:rgb(9.399414%,8.999634%,8.999634%);fill-opacity:1;" d="M 138.5625 383.800781 C 137.992188 385.648438 135.339844 386.488281 132.667969 385.699219 C 129.996094 384.890625 128.253906 382.726563 128.789063 380.863281 C 129.34375 379 132.011719 378.125 134.699219 378.964844 C 137.367188 379.769531 139.117188 381.917969 138.5625 383.800781 "/>
<path style=" stroke:none;fill-rule:nonzero;fill:rgb(9.399414%,8.999634%,8.999634%);fill-opacity:1;" d="M 157.875 385.210938 C 157.941406 387.15625 155.675781 388.773438 152.867188 388.808594 C 150.050781 388.871094 147.761719 387.296875 147.734375 385.378906 C 147.734375 383.414063 149.949219 381.820313 152.769531 381.769531 C 155.574219 381.71875 157.875 383.28125 157.875 385.210938 "/>
<path style=" stroke:none;fill-rule:nonzero;fill:rgb(9.399414%,8.999634%,8.999634%);fill-opacity:1;" d="M 175.84375 382.15625 C 176.179688 384.050781 174.230469 386 171.445313 386.519531 C 168.703125 387.023438 166.171875 385.851563 165.820313 383.96875 C 165.480469 382.023438 167.464844 380.070313 170.199219 379.566406 C 172.988281 379.082031 175.488281 380.226563 175.84375 382.15625 "/>
</g>
</svg>
